<?xml version="1.0" encoding="UTF-8"?>
<svg id="Ebene_1" data-name="Ebene 1" xmlns="http://www.w3.org/2000/svg" viewBox="0 0 300 155">
  <defs>
    <style>
      .cls-1 {
        fill: #fefefe;
      }
    </style>
  </defs>
  <path class="cls-1" d="M172,51.95c4.01,1.86,7.89,4.23,11.62,7.1,15.2,5.58,31.23,8.23,48.1,7.94,22.4-1.07,44.59-3.35,66.58-6.83l1.7,1.79v4l-223.95,36.72c-1.88,1.03-2.12-.19-2.33-2.24,17.89-5.11,57.34-11.83,71.79-22.9,1.27-.97,1.57-2.74,1.57-4.08s-2.06-2.29-3.76-2.97c-17.62-7.06-45.05-8.64-64.4-10.67l-16.84-1.77c-5.2-.55-10.03-.61-15.07-.83l-25.97-1.16c-7.35-.33-14.33.49-21.04-1.1v-3h172Z"/>
</svg>